# xmcd
#
# Track frame offsets: 
#        150
#        25047
#        46527
#        66372
#        90699
#        111160
#        135737
#        153653
#        170991
#        181227
#        214938
#
# Disc length: 3233 seconds
#
# Revision: 0
# Processed by: cddbd v1.5.2PL0 Copyright (c) Steve Scherf et al.
# Submitted via: ExactAudioCopy v1.0b1
#
DISCID=980c9f0b
DTITLE=Brass Construction - Renegades
DYEAR=1984
DGENRE=Funk
TTITLE0=International
TTITLE1=Never Had A Girl
TTITLE2=We Can Bring It Back
TTITLE3=Fascinating You
TTITLE4=Partyline
TTITLE5=Renegades
TTITLE6=Dangerous
TTITLE7=Closer To You
TTITLE8=What Is The Law??
TTITLE9=International (Special Mix)
TTITLE10=Partyline (Party Mix)
EXTD=
EXTT0=
EXTT1=
EXTT2=
EXTT3=
EXTT4=
EXTT5=
EXTT6=
EXTT7=
EXTT8=
EXTT9=
EXTT10=
PLAYORDER=
